<svg width="512" height="512" viewBox="0 0 512 512" fill="none" xmlns="http://www.w3.org/2000/svg">
<rect width="512" height="512" rx="16" fill="white"/>
<path d="M90.312 281V268.904L115.224 240.248V239.096H91.032V230.6H125.16V242.696L100.248 271.352V272.504H125.304V281H90.312ZM162.057 282.008C155.721 282.008 150.681 280.28 146.937 276.824C143.193 273.32 141.321 268.328 141.321 261.848V249.752C141.321 243.272 143.193 238.304 146.937 234.848C150.681 231.344 155.721 229.592 162.057 229.592C168.393 229.592 173.433 231.344 177.177 234.848C180.921 238.304 182.793 243.272 182.793 249.752V261.848C182.793 268.328 180.921 273.32 177.177 276.824C173.433 280.28 168.393 282.008 162.057 282.008ZM162.057 273.512C165.609 273.512 168.369 272.48 170.337 270.416C172.305 268.352 173.289 265.592 173.289 262.136V249.464C173.289 246.008 172.305 243.248 170.337 241.184C168.369 239.12 165.609 238.088 162.057 238.088C158.553 238.088 155.793 239.12 153.777 241.184C151.809 243.248 150.825 246.008 150.825 249.464V262.136C150.825 265.592 151.809 268.352 153.777 270.416C155.793 272.48 158.553 273.512 162.057 273.512ZM220.793 282.008C214.457 282.008 209.417 280.28 205.673 276.824C201.929 273.32 200.057 268.328 200.057 261.848V249.752C200.057 243.272 201.929 238.304 205.673 234.848C209.417 231.344 214.457 229.592 220.793 229.592C227.129 229.592 232.169 231.344 235.913 234.848C239.657 238.304 241.529 243.272 241.529 249.752V261.848C241.529 268.328 239.657 273.32 235.913 276.824C232.169 280.28 227.129 282.008 220.793 282.008ZM220.793 273.512C224.345 273.512 227.105 272.48 229.073 270.416C231.041 268.352 232.025 265.592 232.025 262.136V249.464C232.025 246.008 231.041 243.248 229.073 241.184C227.105 239.12 224.345 238.088 220.793 238.088C217.289 238.088 214.529 239.12 212.513 241.184C210.545 243.248 209.561 246.008 209.561 249.464V262.136C209.561 265.592 210.545 268.352 212.513 270.416C214.529 272.48 217.289 273.512 220.793 273.512ZM259.945 281V230.6H277.585L286.297 274.52H287.593L296.305 230.6H313.945V281H304.729V237.584H303.433L294.793 281H279.097L270.457 237.584H269.161V281H259.945Z" fill="#0B5CFF"/>
<path d="M333.517 281V230.6H365.917V239.24H343.021V251.264H363.901V259.904H343.021V272.36H366.349V281H333.517ZM383.464 281V230.6H405.352C408.52 230.6 411.28 231.152 413.632 232.256C415.984 233.36 417.808 234.92 419.104 236.936C420.4 238.952 421.048 241.328 421.048 244.064V244.928C421.048 247.952 420.328 250.4 418.888 252.272C417.448 254.144 415.672 255.512 413.56 256.376V257.672C415.48 257.768 416.968 258.44 418.024 259.688C419.08 260.888 419.608 262.496 419.608 264.512V281H410.104V265.88C410.104 264.728 409.792 263.792 409.168 263.072C408.592 262.352 407.608 261.992 406.216 261.992H392.968V281H383.464ZM392.968 253.352H404.344C406.6 253.352 408.352 252.752 409.6 251.552C410.896 250.304 411.544 248.672 411.544 246.656V245.936C411.544 243.92 410.92 242.312 409.672 241.112C408.424 239.864 406.648 239.24 404.344 239.24H392.968V253.352Z" fill="#1E293B"/>
</svg>
